<svg xmlns="http://www.w3.org/2000/svg" viewBox="0 0 512 512" role="img" aria-label="CoCare">
  <rect width="512" height="512" rx="96" fill="#0f172a"/>
  <rect x="112" y="128" width="288" height="256" rx="36" fill="#ffffff"/>
  <rect x="112" y="128" width="288" height="76" rx="36" fill="#2563eb"/>
  <rect x="168" y="96" width="28" height="78" rx="14" fill="#e2e8f0"/>
  <rect x="316" y="96" width="28" height="78" rx="14" fill="#e2e8f0"/>
  <path d="M257 342c-8 0-15-3-21-9l-58-58c-16-16-16-41 0-57 15-15 39-16 55-3l23 19 23-19c16-13 40-12 55 3 16 16 16 41 0 57l-56 58c-6 6-13 9-21 9Z" fill="#e11d48"/>
  <circle cx="177" cy="240" r="16" fill="#cbd5e1"/>
  <circle cx="256" cy="240" r="16" fill="#cbd5e1"/>
  <circle cx="335" cy="240" r="16" fill="#cbd5e1"/>
</svg>
